#!OML:ASF X:\für Bonn\!DataBase\2005_08_11_Bastian_Final\c3d\Bastian.ASF
:FULLY-SPECIFIED
:DEGREES
245
root 7.8461 17.0322 -2.57676 172.481 76.1344 -184.389
lowerback 43.2972 -6.32825 11.0278
upperback 19.4961 1.05936 5.29694
thorax 1.6735 2.62962 -0.135119
lowerneck -9.04662 -12.3765 -1.24981
upperneck -19.8018 -14.6428 13.7915
head -3.31607 -7.59431 4.32403
rclavicle 5.08889e-014 9.54166e-015
rhumerus -0.56387 31.4458 -63.2109
rradius 29.6581
rwrist -5.12244
rhand -18.4096 2.80915
rfingers 7.12502
rthumb 7.87501 -27.0242
lclavicle 5.08889e-014 9.54166e-015
lhumerus 11.2506 -35.6823 76.9146
lradius 47.6708
lwrist 20.0647
lhand -11.9274 -9.71594
lfingers 7.12502
lthumb 14.127 19.7838
rfemur -25.674 -1.32402 18.9064
rtibia 46.8201
rfoot -11.5383 -7.74791
rtoes -12.253
lfemur -17.9412 -2.78995 -22.8173
ltibia 39.0915
lfoot -10.0342 -10.1675
ltoes -8.84136
246
root 7.92175 17.0684 -2.56111 173.007 76.0917 -183.678
lowerback 42.3685 -6.17728 10.9406
upperback 19.4913 0.977877 5.24573
thorax 1.89868 2.57623 -0.133154
lowerneck -8.92343 -12.3334 -1.4065
upperneck -19.6486 -14.5765 13.8361
head -3.27487 -7.55011 4.36004
rclavicle -6.36111e-014 -3.65764e-014
rhumerus -1.6518 31.7919 -64.2827
rradius 29.7178
rwrist -5.16555
rhand -18.3172 2.61215
rfingers 7.12502
rthumb 7.96417 -27.2178
lclavicle -6.36111e-014 -3.65764e-014
lhumerus 11.0265 -35.6077 77.0364
lradius 47.587
lwrist 20.0713
lhand -11.9137 -9.76489
lfingers 7.12502
lthumb 14.1402 19.7339
rfemur -24.818 -1.32905 19.2026
rtibia 46.1399
rfoot -11.588 -7.79993
rtoes -11.9173
lfemur -17.0473 -2.76503 -22.5237
ltibia 38.3075
lfoot -10.0146 -10.2421
ltoes -9.38753
247
root 7.99932 17.1021 -2.5454 173.326 76.0562 -183.188
lowerback 41.467 -6.01573 10.8189
upperback 19.4528 0.897185 5.16257
thorax 2.08617 2.5172 -0.150489
lowerneck -8.7978 -12.2871 -1.49954
upperneck -19.4545 -14.52 13.8311
head -3.23104 -7.51296 4.37073
rclavicle -2.22639e-014 -4.45278e-014
rhumerus -2.78608 32.0251 -65.4075
rradius 29.7607
rwrist -5.0905
rhand -18.1519 2.48733
rfingers 7.12502
rthumb 8.12369 -27.3365
lclavicle -2.22639e-014 -4.45278e-014
lhumerus 10.7295 -35.5307 77.1597
lradius 47.5097
lwrist 20.0644
lhand -11.919 -9.81821
lfingers 7.12502
lthumb 14.1351 19.681
rfemur -23.9936 -1.35931 19.4452
rtibia 45.5118
rfoot -11.7018 -7.81859
rtoes -11.6114
lfemur -16.1572 -2.67797 -22.2898
ltibia 37.5178
lfoot -10.0189 -10.3424
ltoes -10.1079
248
root 8.07772 17.133 -2.52794 173.623 76.0349 -182.687
lowerback 40.6449 -5.83374 10.6518
upperback 19.393 0.846722 5.11691
thorax 2.23455 2.46411 -0.115777
lowerneck -8.67563 -12.2636 -1.62913
upperneck -19.2087 -14.5061 13.7922
head -3.16838 -7.49343 4.37259
rclavicle 1.27222e-014 0
rhumerus -3.91373 32.2633 -66.4757
rradius 29.807
rwrist -5.05543
rhand -18.0444 2.34514
rfingers 7.12502
rthumb 8.22748 -27.4747
lclavicle 1.27222e-014 0
lhumerus 10.4423 -35.4331 77.3703
lradius 47.3693
lwrist 20.0732
lhand -11.9995 -9.90802
lfingers 7.12502
lthumb 14.0574 19.5966
rfemur -23.1572 -1.34348 19.6998
rtibia 44.9253
rfoot -11.8075 -7.8733
rtoes -11.1739
lfemur -15.2291 -2.5859 -22.0351
ltibia 36.7232
lfoot -9.99305 -10.4602
ltoes -10.5962
249
root 8.15682 17.1631 -2.51194 173.658 76.0147 -182.455
lowerback 39.8653 -5.66093 10.4621
upperback 19.2805 0.779558 5.02775
thorax 2.31753 2.39609 -0.112876
lowerneck -8.48469 -12.2258 -1.74287
upperneck -18.9413 -14.4792 13.7366
head -3.11363 -7.47073 4.37118
rclavicle 6.20208e-014 4.92986e-014
rhumerus -5.13293 32.5143 -67.6196
rradius 29.8781
rwrist -5.09623
rhand -17.995 2.23453
rfingers 7.12502
rthumb 8.27517 -27.5834
lclavicle 6.20208e-014 4.92986e-014
lhumerus 10.0154 -35.3212 77.626
lradius 47.2715
lwrist 20.0603
lhand -12.0302 -10.0007
lfingers 7.12502
lthumb 14.0279 19.5059
rfemur -22.343 -1.29643 19.8694
rtibia 44.3821
rfoot -11.9601 -7.91786
rtoes -10.5968
lfemur -14.2945 -2.46126 -21.8546
ltibia 35.9253
lfoot -9.95559 -10.5718
ltoes -11.0681
250
root 8.23756 17.1903 -2.49598 173.557 76.0032 -182.334
lowerback 39.1395 -5.4797 10.2391
upperback 19.16 0.726137 4.92952
thorax 2.38195 2.33208 -0.106836
lowerneck -8.35035 -12.1887 -1.79464
upperneck -18.5848 -14.4712 13.6318
head -3.03163 -7.45664 4.33838
rclavicle -2.70347e-014 1.11319e-014
rhumerus -6.36854 32.7258 -68.7746
rradius 29.9509
rwrist -5.14429
rhand -17.9742 2.15226
rfingers 7.12502
rthumb 8.29519 -27.6649
lclavicle -2.70347e-014 1.11319e-014
lhumerus 9.56258 -35.1742 77.917
lradius 47.1668
lwrist 20.0227
lhand -12.0982 -10.0802
lfingers 7.12502
lthumb 13.9623 19.431
rfemur -21.5075 -1.30744 20.0178
rtibia 43.8693
rfoot -12.1054 -7.92563
rtoes -10.2677
lfemur -13.3355 -2.36469 -21.7065
ltibia 35.1437
lfoot -9.92888 -10.6661
ltoes -11.4868
251
root 8.31851 17.2149 -2.47921 173.468 75.9825 -182.211
lowerback 38.3154 -5.28052 10.0096
upperback 19.128 0.672486 4.86292
thorax 2.41649 2.27071 -0.113022
lowerneck -8.17484 -12.166 -1.89932
upperneck -18.242 -14.4758 13.5695
head -2.95126 -7.44937 4.32823
rclavicle 1.59028e-014 4.77083e-014
rhumerus -7.61932 32.8393 -69.9392
rradius 30.0106
rwrist -5.22149
rhand -17.9852 2.13937
rfingers 7.12502
rthumb 8.2846 -27.6782
lclavicle 1.59028e-014 4.77083e-014
lhumerus 9.09214 -35.0725 78.2291
lradius 47.0367
lwrist 19.9909
lhand -12.1949 -10.1956
lfingers 7.12502
lthumb 13.8692 19.3219
rfemur -20.7086 -1.29529 20.1752
rtibia 43.3867
rfoot -12.2526 -7.98659
rtoes -9.94113
lfemur -12.4061 -2.24362 -21.5496
ltibia 34.383
lfoot -9.90154 -10.7971
ltoes -11.8976
252
root 8.40119 17.2385 -2.46272 173.393 76.0098 -182.095
lowerback 37.6026 -5.07881 9.7952
upperback 18.9653 0.652755 4.75936
thorax 2.44124 2.21752 -0.12761
lowerneck -7.99909 -12.1279 -1.95657
upperneck -17.8476 -14.4733 13.45
head -2.86513 -7.43905 4.29293
rclavicle 1.27222e-014 2.22639e-014
rhumerus -8.92166 33.013 -71.1106
rradius 30.1181
rwrist -5.42545
rhand -18.0735 2.10621
rfingers 7.12502
rthumb 8.19942 -27.7147
lclavicle 1.27222e-014 2.22639e-014
lhumerus 8.53895 -34.9367 78.5561
lradius 46.9986
lwrist 20.0021
lhand -12.2189 -10.2918
lfingers 7.12502
lthumb 13.846 19.2273
rfemur -19.938 -1.24778 20.3308
rtibia 42.9227
rfoot -12.4315 -8.01395
rtoes -9.55163
lfemur -11.5112 -2.09483 -21.3879
ltibia 33.67
lfoot -9.90711 -10.8846
ltoes -12.2454
253
root 8.48399 17.2598 -2.44663 173.438 76.0081 -181.868
lowerback 36.8479 -4.90523 9.62637
upperback 18.8393 0.61832 4.65301
thorax 2.52769 2.16676 -0.160227
lowerneck -7.977 -12.1057 -1.99051
upperneck -17.3947 -14.4998 13.2965
head -2.7409 -7.43646 4.23139
rclavicle -1.43125e-014 1.74931e-014
rhumerus -10.1224 33.0399 -72.2218
rradius 30.2295
rwrist -5.57221
rhand -18.179 2.10077
rfingers 7.12502
rthumb 8.09762 -27.7241
lclavicle -1.43125e-014 1.74931e-014
lhumerus 8.06982 -34.7909 78.834
lradius 46.9501
lwrist 20.0304
lhand -12.2106 -10.3973
lfingers 7.12502
lthumb 13.854 19.1213
rfemur -19.1873 -1.19377 20.5136
rtibia 42.479
rfoot -12.5935 -8.07747
rtoes -8.99952
lfemur -10.6729 -2.00039 -21.1968
ltibia 33.0141
lfoot -9.89791 -10.9972
ltoes -12.4924
254
root 8.56766 17.2792 -2.42987 173.638 76.0195 -181.5
lowerback 36.0956 -4.72819 9.45731
upperback 18.6997 0.593627 4.57846
thorax 2.60517 2.11681 -0.161695
lowerneck -8.17411 -12.0667 -2.01792
upperneck -16.4513 -14.5926 12.781
head -2.80902 -7.41136 4.47222
rclavicle -5.88403e-014 -3.33958e-014
rhumerus -11.2667 33.0141 -73.2568
rradius 30.276
rwrist -5.65682
rhand -18.3364 2.15223
rfingers 7.12502
rthumb 7.94562 -27.6784
lclavicle -5.88403e-014 -3.33958e-014
lhumerus 7.51759 -34.623 79.1392
lradius 46.9576
lwrist 20.0399
lhand -12.2174 -10.4704
lfingers 7.12502
lthumb 13.8475 19.0486
rfemur -18.4624 -1.16228 20.7391
rtibia 42.0455
rfoot -12.756 -8.11362
rtoes -8.53268
lfemur -9.88603 -1.89875 -20.9673
ltibia 32.4331
lfoot -9.94018 -11.0883
ltoes -12.8205
255
root 8.65234 17.2968 -2.41295 173.822 76.0079 -181.151
lowerback 35.3252 -4.56642 9.28116
upperback 18.5788 0.553616 4.50534
thorax 2.7151 2.06162 -0.151791
lowerneck -8.20313 -12.0229 -2.14634
upperneck -15.9934 -14.5769 12.6697
head -2.64383 -7.38483 4.42057
rclavicle -2.38542e-014 -7.15625e-014
rhumerus -12.3284 32.9833 -74.2165
rradius 30.3424
rwrist -5.82537
rhand -18.4147 2.20689
rfingers 7.12502
rthumb 7.87009 -27.6266
lclavicle -2.38542e-014 -7.15625e-014
lhumerus 6.97185 -34.4331 79.4014
lradius 47.0197
lwrist 20.1187
lhand -12.2124 -10.5779
lfingers 7.12502
lthumb 13.8523 18.9408
rfemur -17.7455 -1.13893 20.9653
rtibia 41.6322
rfoot -12.9429 -8.18815
rtoes -8.08895
lfemur -9.15054 -1.81111 -20.7384
ltibia 31.9297
lfoot -10.022 -11.1853
ltoes -13.0592
256
root 8.73656 17.3137 -2.39587 174.18 75.9958 -180.665
lowerback 34.5265 -4.40841 9.16873
upperback 18.4336 0.523852 4.41837
thorax 2.81777 2.01416 -0.191812
lowerneck -8.19839 -11.9897 -2.21905
upperneck -15.566 -14.5753 12.5601
head -2.49928 -7.37041 4.36586
rclavicle -3.18055e-014 7.95139e-015
rhumerus -13.4058 32.8837 -75.1904
rradius 30.4124
rwrist -5.94716
rhand -18.5247 2.27179
rfingers 7.12502
rthumb 7.7639 -27.5657
lclavicle -3.18055e-014 7.95139e-015
lhumerus 6.43214 -34.3015 79.6346
lradius 47.0651
lwrist 20.2939
lhand -12.2512 -10.6811
lfingers 7.12502
lthumb 13.815 18.8402
rfemur -17.0826 -1.08893 21.2309
rtibia 41.2232
rfoot -13.0971 -8.29012
rtoes -7.88883
lfemur -8.51112 -1.78705 -20.477
ltibia 31.5195
lfoot -10.1339 -11.2262
ltoes -13.5493
257
root 8.82111 17.3276 -2.37819 174.534 75.9786 -180.185
lowerback 33.7447 -4.24881 9.00149
upperback 18.2836 0.489424 4.36918
thorax 2.91386 1.95735 -0.162562
lowerneck -8.25952 -11.9453 -2.37729
upperneck -15.0204 -14.5653 12.4491
head -2.29784 -7.34439 4.31262
rclavicle -7.31528e-014 -2.38542e-014
rhumerus -14.4209 32.8128 -76.0592
rradius 30.4799
rwrist -6.12705
rhand -18.5949 2.34255
rfingers 7.12502
rthumb 7.69612 -27.4974
lclavicle -7.31528e-014 -2.38542e-014
lhumerus 5.8573 -34.0872 79.9566
lradius 47.0572
lwrist 20.3901
lhand -12.3969 -10.7472
lfingers 7.12502
lthumb 13.6745 18.7836
rfemur -16.4206 -1.02959 21.4945
rtibia 40.825
rfoot -13.2658 -8.38284
rtoes -7.21314
lfemur -7.91832 -1.77191 -20.2163
ltibia 31.1941
lfoot -10.2711 -11.2821
ltoes -13.7525
